<svg width="245" height="113" viewBox="0 0 245 113" fill="none" xmlns="http://www.w3.org/2000/svg">
<path d="M0 23.3911C2.10799 7.23993 6.87764 1.97714 24.5049 2.22772H61.2624C64.9534 2.22772 67.9455 5.21988 67.9455 8.91089V16.7079C67.9455 20.3989 64.9534 23.3911 61.2624 23.3911H44.5545C29.4006 24.9472 23.6731 28.5204 24.5049 45.6683H61.2624C64.9534 45.6683 67.9455 48.6605 67.9455 52.3515V63.4901C67.9455 67.1811 64.9534 70.1733 61.2624 70.1733H24.5049C23.8536 86.9378 29.7194 90.0923 44.5545 91.3366H61.2624C64.9534 91.3366 67.9455 94.3288 67.9455 98.0198V105.817C67.9455 109.508 64.9534 112.5 61.2624 112.5H26.9914C25.3875 112.5 23.837 111.923 22.6231 110.875L2.31492 93.3359C0.844959 92.0664 0 90.2202 0 88.2779V23.3911Z" fill="white"/>
<path fill-rule="evenodd" clip-rule="evenodd" d="M130.838 111.386H111.015C99.1318 110.96 94.0977 106.555 89.0244 90.0538C88.8337 89.4333 88.7378 88.7791 88.7378 88.13V69.6152C88.7378 68.7576 88.9006 67.9048 89.2331 67.1143C93.3891 57.2344 97.7699 52.2393 109.705 46.6428C110.565 46.2396 111.506 46.0396 112.456 46.0396H126.609C130.3 46.0396 133.292 43.0474 133.292 39.3564V6.68317C133.292 2.99216 136.284 0 139.975 0H149.629C153.32 0 156.312 2.99216 156.312 6.68317V87.2578C156.312 88.469 156.641 89.6576 157.264 90.6962L163.605 101.264C166.278 105.719 163.069 111.386 157.875 111.386H149.38C147.467 111.386 145.916 109.835 145.916 107.923C145.916 104.94 142.397 103.352 140.161 105.326L135.132 109.763C133.947 110.809 132.42 111.386 130.838 111.386ZM133.292 82.4257C133.292 86.1167 130.3 89.1089 126.609 89.1089H122.685C122.331 89.1089 121.977 89.1392 121.627 89.1875C115.837 89.9854 113.33 88.051 111.356 80.1574C111.119 79.2115 111.114 78.2162 111.356 77.2715C113.052 70.6231 115.557 68.5328 122.154 68.3168H126.609C130.3 68.3168 133.292 71.309 133.292 75V82.4257Z" fill="white"/>
<path d="M182.302 45.2971H173.391C169.7 45.2971 166.708 48.2893 166.708 51.9803V62.3763C166.708 66.0673 169.7 69.0595 173.391 69.0595H182.302C185.993 69.0595 188.985 66.0673 188.985 62.3763V51.9803C188.985 48.2893 185.993 45.2971 182.302 45.2971Z" fill="white"/>
<path d="M221.842 1.29367L204.862 8.65159C202.418 9.7107 200.836 12.1201 200.836 14.7838V15.5942C200.836 19.2852 203.829 22.2773 207.52 22.2773H216.43C220.121 22.2773 223.114 25.2695 223.114 28.9605V105.446C223.114 109.137 226.106 112.129 229.797 112.129H237.965C241.656 112.129 244.648 109.137 244.648 105.446V7.42584C244.648 3.73483 241.656 0.742676 237.965 0.742676H224.499C223.585 0.742676 222.681 0.930205 221.842 1.29367Z" fill="white"/>
</svg>
